<svg width="482" height="482" viewBox="0 0 482 482" fill="none" xmlns="http://www.w3.org/2000/svg">
<path fill-rule="evenodd" clip-rule="evenodd" d="M90.1944 60.1296C114.002 60.1296 133.376 79.4838 133.376 103.311C133.376 127.118 114.021 146.36 90.1944 146.36C66.3867 146.36 47.1456 127.118 47.1456 103.311C47.1456 79.5034 66.3871 60.1296 90.1944 60.1296ZM408.392 189.897C416.698 185.331 427.145 188.338 431.843 196.756C436.409 205.061 433.403 215.509 424.985 220.206C416.679 224.773 406.232 221.766 401.534 213.348C396.968 205.042 399.974 194.595 408.392 189.897ZM370.623 210.83C380.958 205.061 394.074 208.782 399.843 219.248C405.612 229.715 401.891 242.811 391.425 248.599C380.959 254.368 367.861 250.516 362.074 240.068C356.305 229.734 360.157 216.618 370.605 210.849L370.623 210.83ZM325.282 235.84C337.796 228.869 353.543 233.435 360.401 245.95C367.372 258.464 362.806 274.211 350.292 281.069C337.777 288.041 322.031 283.474 315.059 270.96C308.201 258.445 312.767 242.699 325.282 235.84ZM272.368 264.947C287.043 256.886 305.326 262.185 313.368 276.86C321.429 291.404 316.13 309.819 301.586 317.86C286.911 325.921 268.628 320.623 260.586 305.947C252.525 291.403 257.824 272.989 272.368 264.947ZM211.993 298.375C228.586 289.112 249.631 295.125 258.895 311.848C268.027 328.572 262.014 349.485 245.309 358.749C228.585 368.013 207.671 361.868 198.408 345.163C189.276 328.571 195.289 307.526 211.993 298.374V298.375ZM136.475 339.977C157.276 328.552 183.488 336.125 195.045 356.926C206.582 377.727 199.01 404.072 178.096 415.496C157.295 427.033 131.083 419.461 119.526 398.66C107.988 377.727 115.561 351.514 136.475 339.977V339.977ZM403.695 144.067C412.714 140.947 422.448 145.626 425.699 154.646C428.818 163.665 424.007 173.53 414.988 176.65C406.081 179.769 396.235 175.09 393.097 166.07C389.978 157.051 394.657 147.186 403.676 144.067H403.695ZM362.919 158.254C374.231 154.402 386.482 160.302 390.466 171.595C394.318 182.775 388.418 195.045 377.237 199.01C365.925 202.975 353.674 196.962 349.69 185.782C345.725 174.47 351.738 162.219 362.919 158.235V158.254ZM314.102 175.334C327.574 170.636 342.362 177.739 347.06 191.325C351.758 204.798 344.655 219.586 331.182 224.284C317.71 228.981 302.921 221.878 298.224 208.406C293.526 194.933 300.629 180.144 314.102 175.334ZM257.091 195.289C272.837 189.765 290.049 198.052 295.574 213.817C301.098 229.563 292.811 246.776 277.046 252.3C261.3 257.824 244.087 249.538 238.563 233.772C233.039 218.026 241.325 200.814 257.091 195.289ZM191.906 218.139C209.945 211.769 229.675 221.258 235.913 239.297C242.17 257.223 232.662 276.934 214.755 283.191C196.716 289.448 176.986 280.072 170.748 262.033C164.491 243.994 173.999 224.396 191.906 218.139ZM110.487 246.512C132.979 238.695 157.632 250.477 165.449 272.969C173.266 295.461 161.484 320.115 138.992 327.932C116.5 335.861 91.8464 323.967 84.0295 301.475C76.2111 278.983 87.9943 254.461 110.487 246.512ZM401.157 100.999C410.534 99.4389 419.44 105.696 421 115.186C422.56 124.562 416.302 133.469 406.926 135.028C397.418 136.588 388.53 130.331 386.971 120.954C385.411 111.446 391.781 102.558 401.158 100.999L401.157 100.999ZM358.577 108.214C370.359 106.297 381.427 114.114 383.475 125.896C385.391 137.678 377.574 148.745 365.793 150.793C354.011 152.71 342.944 144.893 340.896 133.111C338.979 121.33 346.796 110.262 358.577 108.214ZM307.58 116.876C321.653 114.471 334.995 123.979 337.4 138.034C339.805 152.108 330.297 165.581 316.242 167.855C302.168 170.26 288.695 160.884 286.421 146.697C284.016 132.623 293.524 119.282 307.58 116.876ZM248.051 126.986C264.399 124.224 280.033 135.291 282.814 151.752C285.576 168.099 274.508 183.733 258.161 186.514C241.681 189.276 226.048 178.209 223.285 161.861C220.523 145.382 231.591 129.748 248.051 126.986ZM179.992 138.523C198.745 135.404 216.559 148.031 219.791 166.784C222.91 185.537 210.283 203.35 191.53 206.582C172.777 209.701 154.963 197.074 151.732 178.321C148.612 159.568 161.24 141.755 179.992 138.523ZM94.9651 152.954C118.416 148.989 140.664 164.736 144.628 188.318C148.725 211.769 132.846 234.017 109.396 237.981C85.8326 242.077 63.5851 226.199 59.6005 202.749C55.6357 179.298 71.3823 156.938 94.9643 152.953L94.9651 152.954ZM400.78 60.11C410.289 60.11 417.974 67.8142 417.974 77.4349C417.974 86.943 410.27 94.6284 400.78 94.6284C391.16 94.6284 383.455 86.9242 383.455 77.4349C383.455 67.8142 391.16 60.11 400.78 60.11ZM357.599 60.11C369.513 60.11 379.133 69.7307 379.133 81.7567C379.133 93.5385 369.513 103.291 357.599 103.291C345.686 103.291 336.065 93.5573 336.065 81.7567C336.065 69.7307 345.686 60.11 357.599 60.11ZM305.888 60.11C320.075 60.11 331.744 71.6473 331.744 85.9657C331.744 100.284 320.075 111.821 305.888 111.821C291.569 111.821 279.919 100.284 279.919 85.9657C279.919 71.6473 291.588 60.11 305.888 60.11ZM245.401 60.11C262.125 60.11 275.579 73.6957 275.579 90.2874C275.579 107.011 262.106 120.465 245.401 120.465C228.809 120.465 215.224 106.992 215.224 90.2874C215.224 73.6953 228.81 60.11 245.401 60.11ZM176.497 60.11C195.494 60.11 210.883 75.631 210.883 94.628C210.883 113.625 195.494 129.146 176.497 129.146C157.368 129.146 141.979 113.625 141.979 94.628C141.979 75.631 157.368 60.11 176.497 60.11Z" fill="#C3E4F3"/>
</svg>
